<?xml version="1.0" encoding="UTF-8" standalone="no"?>
<!DOCTYPE svg PUBLIC "-//W3C//DTD SVG 1.1//EN"
 "http://www.w3.org/Graphics/SVG/1.1/DTD/svg11.dtd">
<!-- Generated by graphviz version 2.40.1 (20161225.0304)
 -->
<!-- Title: %0 Pages: 1 -->
<svg width="595pt" height="736pt"
 viewBox="0.00 0.00 594.96 736.00" xmlns="http://www.w3.org/2000/svg" xmlns:xlink="http://www.w3.org/1999/xlink">
<g id="graph0" class="graph" transform="scale(1 1) rotate(0) translate(144 592)">
<title>%0</title>
<polygon fill="#ffffff" stroke="transparent" points="-144,144 -144,-592 450.958,-592 450.958,144 -144,144"/>
<!-- expenses -->
<g id="node1" class="node">
<title>expenses</title>
<polygon fill="#4477c9" stroke="transparent" points="230.958,-250 230.958,-448 306.958,-448 306.958,-250 230.958,-250"/>
<polygon fill="#add8e6" stroke="transparent" points="230.958,-430 230.958,-448 306.958,-448 306.958,-430 230.958,-430"/>
<polygon fill="none" stroke="#000000" points="230.958,-430 230.958,-448 306.958,-448 306.958,-430 230.958,-430"/>
<text text-anchor="start" x="250.4652" y="-436.9" font-family="Times,serif" font-weight="bold" font-style="italic" font-size="9.00" fill="#000000"> expenses </text>
<polygon fill="none" stroke="#000000" points="230.958,-410 230.958,-430 306.958,-430 306.958,-410 230.958,-410"/>
<text text-anchor="start" x="235.5869" y="-416.9" font-family="Times,serif" font-size="9.00" fill="#000000">description: String</text>
<polygon fill="none" stroke="#000000" points="230.958,-390 230.958,-410 306.958,-410 306.958,-390 230.958,-390"/>
<text text-anchor="start" x="235.958" y="-396.9" font-family="Times,serif" font-size="9.00" fill="#000000">type: String</text>
<polygon fill="none" stroke="#000000" points="230.958,-370 230.958,-390 306.958,-390 306.958,-370 230.958,-370"/>
<text text-anchor="start" x="235.958" y="-376.9" font-family="Times,serif" font-size="9.00" fill="#000000">amount: Number</text>
<polygon fill="none" stroke="#000000" points="230.958,-350 230.958,-370 306.958,-370 306.958,-350 230.958,-350"/>
<text text-anchor="start" x="235.958" y="-356.9" font-family="Times,serif" font-size="9.00" fill="#000000">category: String</text>
<polygon fill="none" stroke="#000000" points="230.958,-330 230.958,-350 306.958,-350 306.958,-330 230.958,-330"/>
<text text-anchor="start" x="235.958" y="-336.9" font-family="Times,serif" font-size="9.00" fill="#000000">user: ObjectID</text>
<polygon fill="none" stroke="#000000" points="230.958,-310 230.958,-330 306.958,-330 306.958,-310 230.958,-310"/>
<text text-anchor="start" x="235.958" y="-316.9" font-family="Times,serif" font-size="9.00" fill="#000000">_id: ObjectID</text>
<polygon fill="none" stroke="#000000" points="230.958,-290 230.958,-310 306.958,-310 306.958,-290 230.958,-290"/>
<text text-anchor="start" x="235.958" y="-296.9" font-family="Times,serif" font-size="9.00" fill="#000000">updatedAt: Date</text>
<polygon fill="none" stroke="#000000" points="230.958,-270 230.958,-290 306.958,-290 306.958,-270 230.958,-270"/>
<text text-anchor="start" x="235.958" y="-276.9" font-family="Times,serif" font-size="9.00" fill="#000000">createdAt: Date</text>
<polygon fill="none" stroke="#000000" points="230.958,-250 230.958,-270 306.958,-270 306.958,-250 230.958,-250"/>
<text text-anchor="start" x="235.958" y="-256.9" font-family="Times,serif" font-size="9.00" fill="#000000">__v: Number</text>
</g>
<!-- incomes -->
<g id="node2" class="node">
<title>incomes</title>
<polygon fill="#4477c9" stroke="transparent" points="230.958,0 230.958,-178 306.958,-178 306.958,0 230.958,0"/>
<polygon fill="#add8e6" stroke="transparent" points="230.958,-160 230.958,-178 306.958,-178 306.958,-160 230.958,-160"/>
<polygon fill="none" stroke="#000000" points="230.958,-160 230.958,-178 306.958,-178 306.958,-160 230.958,-160"/>
<text text-anchor="start" x="251.7117" y="-166.9" font-family="Times,serif" font-weight="bold" font-style="italic" font-size="9.00" fill="#000000"> incomes </text>
<polygon fill="none" stroke="#000000" points="230.958,-140 230.958,-160 306.958,-160 306.958,-140 230.958,-140"/>
<text text-anchor="start" x="235.5869" y="-146.9" font-family="Times,serif" font-size="9.00" fill="#000000">description: String</text>
<polygon fill="none" stroke="#000000" points="230.958,-120 230.958,-140 306.958,-140 306.958,-120 230.958,-120"/>
<text text-anchor="start" x="235.958" y="-126.9" font-family="Times,serif" font-size="9.00" fill="#000000">type: String</text>
<polygon fill="none" stroke="#000000" points="230.958,-100 230.958,-120 306.958,-120 306.958,-100 230.958,-100"/>
<text text-anchor="start" x="235.958" y="-106.9" font-family="Times,serif" font-size="9.00" fill="#000000">amount: Number</text>
<polygon fill="none" stroke="#000000" points="230.958,-80 230.958,-100 306.958,-100 306.958,-80 230.958,-80"/>
<text text-anchor="start" x="235.958" y="-86.9" font-family="Times,serif" font-size="9.00" fill="#000000">user: ObjectID</text>
<polygon fill="none" stroke="#000000" points="230.958,-60 230.958,-80 306.958,-80 306.958,-60 230.958,-60"/>
<text text-anchor="start" x="235.958" y="-66.9" font-family="Times,serif" font-size="9.00" fill="#000000">_id: ObjectID</text>
<polygon fill="none" stroke="#000000" points="230.958,-40 230.958,-60 306.958,-60 306.958,-40 230.958,-40"/>
<text text-anchor="start" x="235.958" y="-46.9" font-family="Times,serif" font-size="9.00" fill="#000000">updatedAt: Date</text>
<polygon fill="none" stroke="#000000" points="230.958,-20 230.958,-40 306.958,-40 306.958,-20 230.958,-20"/>
<text text-anchor="start" x="235.958" y="-26.9" font-family="Times,serif" font-size="9.00" fill="#000000">createdAt: Date</text>
<polygon fill="none" stroke="#000000" points="230.958,0 230.958,-20 306.958,-20 306.958,0 230.958,0"/>
<text text-anchor="start" x="235.958" y="-6.9" font-family="Times,serif" font-size="9.00" fill="#000000">__v: Number</text>
</g>
<!-- users -->
<g id="node3" class="node">
<title>users</title>
<polygon fill="#4477c9" stroke="transparent" points="0,-145 0,-363 75,-363 75,-145 0,-145"/>
<polygon fill="#add8e6" stroke="transparent" points=".5,-345 .5,-363 75.5,-363 75.5,-345 .5,-345"/>
<polygon fill="none" stroke="#000000" points=".5,-345 .5,-363 75.5,-363 75.5,-345 .5,-345"/>
<text text-anchor="start" x="26.5043" y="-351.9" font-family="Times,serif" font-weight="bold" font-style="italic" font-size="9.00" fill="#000000"> users </text>
<polygon fill="none" stroke="#000000" points=".5,-325 .5,-345 75.5,-345 75.5,-325 .5,-325"/>
<text text-anchor="start" x="5.5" y="-331.9" font-family="Times,serif" font-size="9.00" fill="#000000">firstname: String</text>
<polygon fill="none" stroke="#000000" points=".5,-305 .5,-325 75.5,-325 75.5,-305 .5,-305"/>
<text text-anchor="start" x="5.5" y="-311.9" font-family="Times,serif" font-size="9.00" fill="#000000">lastname: String</text>
<polygon fill="none" stroke="#000000" points=".5,-285 .5,-305 75.5,-305 75.5,-285 .5,-285"/>
<text text-anchor="start" x="5.5" y="-291.9" font-family="Times,serif" font-size="9.00" fill="#000000">email: String</text>
<polygon fill="none" stroke="#000000" points=".5,-265 .5,-285 75.5,-285 75.5,-265 .5,-265"/>
<text text-anchor="start" x="5.5" y="-271.9" font-family="Times,serif" font-size="9.00" fill="#000000">password: String</text>
<polygon fill="none" stroke="#000000" points=".5,-245 .5,-265 75.5,-265 75.5,-245 .5,-245"/>
<text text-anchor="start" x="5.1275" y="-251.9" font-family="Times,serif" font-size="9.00" fill="#000000">isAdmin: Boolean</text>
<polygon fill="none" stroke="#000000" points=".5,-225 .5,-245 75.5,-245 75.5,-225 .5,-225"/>
<text text-anchor="start" x="5.5" y="-231.9" font-family="Times,serif" font-size="9.00" fill="#000000">favorites: Array</text>
<polygon fill="none" stroke="#000000" points=".5,-205 .5,-225 75.5,-225 75.5,-205 .5,-205"/>
<text text-anchor="start" x="5.5" y="-211.9" font-family="Times,serif" font-size="9.00" fill="#000000">_id: ObjectID</text>
<polygon fill="none" stroke="#000000" points=".5,-185 .5,-205 75.5,-205 75.5,-185 .5,-185"/>
<text text-anchor="start" x="5.5" y="-191.9" font-family="Times,serif" font-size="9.00" fill="#000000">updatedAt: Date</text>
<polygon fill="none" stroke="#000000" points=".5,-165 .5,-185 75.5,-185 75.5,-165 .5,-165"/>
<text text-anchor="start" x="5.5" y="-171.9" font-family="Times,serif" font-size="9.00" fill="#000000">createdAt: Date</text>
<polygon fill="none" stroke="#000000" points=".5,-145 .5,-165 75.5,-165 75.5,-145 .5,-145"/>
<text text-anchor="start" x="5.5" y="-151.9" font-family="Times,serif" font-size="9.00" fill="#000000">__v: Number</text>
</g>
<!-- users&#45;&gt;expenses -->
<g id="edge1" class="edge">
<title>users:6&#45;&gt;expenses:4</title>
<path fill="none" stroke="#000000" stroke-dasharray="5,2" d="M75,-215C163.831,-215 142.127,-340 230.958,-340"/>
<text text-anchor="middle" x="152.979" y="-333.2" font-family="Times,serif" font-size="14.00" fill="#000000">users&#45;expenses</text>
<text text-anchor="middle" x="225.9047" y="-327.4" font-family="Times,serif" font-size="14.00" fill="#000000">N</text>
<text text-anchor="middle" x="78.5" y="-202.4" font-family="Times,serif" font-size="14.00" fill="#000000">1</text>
</g>
<!-- users&#45;&gt;incomes -->
<g id="edge2" class="edge">
<title>users:6&#45;&gt;incomes:3</title>
<path fill="none" stroke="#000000" stroke-dasharray="5,2" d="M75,-215C86.1039,-215 219.8541,-90 230.958,-90"/>
<text text-anchor="middle" x="152.979" y="-192.2" font-family="Times,serif" font-size="14.00" fill="#000000">users&#45;incomes</text>
<text text-anchor="middle" x="225.9047" y="-77.4" font-family="Times,serif" font-size="14.00" fill="#000000">N</text>
<text text-anchor="middle" x="78.5" y="-219.2" font-family="Times,serif" font-size="14.00" fill="#000000">1</text>
</g>
</g>
</svg>
